<mxfile host="Electron" agent="Mozilla/5.0 (Macintosh; Intel Mac OS X 10_15_7) AppleWebKit/537.36 (KHTML, like Gecko) draw.io/24.7.17 Chrome/128.0.6613.36 Electron/32.0.1 Safari/537.36" version="24.7.17">
  <diagram id="R2lEEEUBdFMjLlhIrx00" name="Page-1">
    <mxGraphModel dx="1194" dy="824" grid="1" gridSize="10" guides="1" tooltips="1" connect="1" arrows="1" fold="1" page="1" pageScale="1" pageWidth="850" pageHeight="1100" math="0" shadow="0" extFonts="Permanent Marker^https://fonts.googleapis.com/css?family=Permanent+Marker">
      <root>
        <mxCell id="0" />
        <mxCell id="1" parent="0" />
        <mxCell id="krq-VuMKTo3mnrCQgrnc-19" value="&lt;u&gt;&lt;font style=&quot;font-size: 15px;&quot;&gt;WORKFLOW OVERVIEW&lt;/font&gt;&lt;/u&gt;" style="text;html=1;align=center;verticalAlign=middle;whiteSpace=wrap;rounded=0;" vertex="1" parent="1">
          <mxGeometry x="330" y="360" width="190" height="30" as="geometry" />
        </mxCell>
        <mxCell id="krq-VuMKTo3mnrCQgrnc-23" style="edgeStyle=orthogonalEdgeStyle;rounded=0;orthogonalLoop=1;jettySize=auto;html=1;" edge="1" parent="1" source="krq-VuMKTo3mnrCQgrnc-21" target="krq-VuMKTo3mnrCQgrnc-22">
          <mxGeometry relative="1" as="geometry" />
        </mxCell>
        <mxCell id="krq-VuMKTo3mnrCQgrnc-21" value="START" style="html=1;dashed=0;whiteSpace=wrap;shape=mxgraph.dfd.start" vertex="1" parent="1">
          <mxGeometry x="80" y="460" width="80" height="30" as="geometry" />
        </mxCell>
        <mxCell id="krq-VuMKTo3mnrCQgrnc-24" style="edgeStyle=orthogonalEdgeStyle;rounded=0;orthogonalLoop=1;jettySize=auto;html=1;entryX=0;entryY=0.5;entryDx=0;entryDy=0;" edge="1" parent="1" source="krq-VuMKTo3mnrCQgrnc-22" target="krq-VuMKTo3mnrCQgrnc-25">
          <mxGeometry relative="1" as="geometry">
            <mxPoint x="350" y="475" as="targetPoint" />
          </mxGeometry>
        </mxCell>
        <mxCell id="krq-VuMKTo3mnrCQgrnc-22" value="&lt;font style=&quot;font-size: 12px;&quot;&gt;Download datasets (12 csv files) from Divvy tripdata and save in google drive&lt;/font&gt;" style="html=1;dashed=0;whiteSpace=wrap;" vertex="1" parent="1">
          <mxGeometry x="190" y="420" width="100" height="110" as="geometry" />
        </mxCell>
        <mxCell id="krq-VuMKTo3mnrCQgrnc-29" style="edgeStyle=orthogonalEdgeStyle;rounded=0;orthogonalLoop=1;jettySize=auto;html=1;" edge="1" parent="1" source="krq-VuMKTo3mnrCQgrnc-25" target="krq-VuMKTo3mnrCQgrnc-30">
          <mxGeometry relative="1" as="geometry">
            <mxPoint x="450" y="475" as="targetPoint" />
          </mxGeometry>
        </mxCell>
        <mxCell id="krq-VuMKTo3mnrCQgrnc-25" value="&lt;font style=&quot;font-size: 12px;&quot;&gt;Upload data files to BigQuery serverless data warehouse by connecting to Google Drive folder&lt;/font&gt;" style="html=1;dashed=0;whiteSpace=wrap;" vertex="1" parent="1">
          <mxGeometry x="320" y="425" width="100" height="100" as="geometry" />
        </mxCell>
        <mxCell id="krq-VuMKTo3mnrCQgrnc-37" style="edgeStyle=orthogonalEdgeStyle;rounded=0;orthogonalLoop=1;jettySize=auto;html=1;entryX=0;entryY=0.5;entryDx=0;entryDy=0;" edge="1" parent="1" source="krq-VuMKTo3mnrCQgrnc-30" target="krq-VuMKTo3mnrCQgrnc-32">
          <mxGeometry relative="1" as="geometry" />
        </mxCell>
        <mxCell id="krq-VuMKTo3mnrCQgrnc-30" value="&lt;font style=&quot;font-size: 10px;&quot;&gt;Use SQL-queries:&lt;/font&gt;&lt;div&gt;&lt;span style=&quot;font-size: 10px;&quot;&gt;- append files into one big table&lt;br&gt;&lt;/span&gt;&lt;div&gt;&lt;font style=&quot;font-size: 10px;&quot;&gt;- set datatypes,&amp;nbsp;&lt;/font&gt;&lt;/div&gt;&lt;div&gt;&lt;font style=&quot;font-size: 10px;&quot;&gt;- rename headers, and&amp;nbsp;&lt;/font&gt;&lt;/div&gt;&lt;div&gt;&lt;font style=&quot;font-size: 10px;&quot;&gt;- parse datetime&lt;/font&gt;&lt;/div&gt;&lt;/div&gt;" style="html=1;dashed=0;whiteSpace=wrap;" vertex="1" parent="1">
          <mxGeometry x="450" y="422.5" width="100" height="105" as="geometry" />
        </mxCell>
        <mxCell id="krq-VuMKTo3mnrCQgrnc-38" style="edgeStyle=orthogonalEdgeStyle;rounded=0;orthogonalLoop=1;jettySize=auto;html=1;entryX=0;entryY=0.5;entryDx=0;entryDy=0;exitX=1;exitY=0.5;exitDx=0;exitDy=0;" edge="1" parent="1" source="krq-VuMKTo3mnrCQgrnc-32" target="krq-VuMKTo3mnrCQgrnc-34">
          <mxGeometry relative="1" as="geometry">
            <Array as="points">
              <mxPoint x="700" y="475" />
              <mxPoint x="700" y="570" />
              <mxPoint x="170" y="570" />
              <mxPoint x="170" y="655" />
            </Array>
          </mxGeometry>
        </mxCell>
        <mxCell id="krq-VuMKTo3mnrCQgrnc-32" value="&lt;font style=&quot;font-size: 12px;&quot;&gt;Save as separate table in BigQuery&lt;/font&gt;" style="html=1;dashed=0;whiteSpace=wrap;" vertex="1" parent="1">
          <mxGeometry x="580" y="450" width="100" height="50" as="geometry" />
        </mxCell>
        <mxCell id="krq-VuMKTo3mnrCQgrnc-40" style="edgeStyle=orthogonalEdgeStyle;rounded=0;orthogonalLoop=1;jettySize=auto;html=1;entryX=0;entryY=0.5;entryDx=0;entryDy=0;" edge="1" parent="1" source="krq-VuMKTo3mnrCQgrnc-34" target="krq-VuMKTo3mnrCQgrnc-39">
          <mxGeometry relative="1" as="geometry" />
        </mxCell>
        <mxCell id="krq-VuMKTo3mnrCQgrnc-34" value="&lt;span style=&quot;font-size: 11px;&quot;&gt;Write additional SQL queries in Quarto markdown notebook for each analysis category&lt;/span&gt;" style="html=1;dashed=0;whiteSpace=wrap;" vertex="1" parent="1">
          <mxGeometry x="190" y="610" width="100" height="90" as="geometry" />
        </mxCell>
        <mxCell id="krq-VuMKTo3mnrCQgrnc-42" style="edgeStyle=orthogonalEdgeStyle;rounded=0;orthogonalLoop=1;jettySize=auto;html=1;entryX=0;entryY=0.5;entryDx=0;entryDy=0;" edge="1" parent="1" source="krq-VuMKTo3mnrCQgrnc-39" target="krq-VuMKTo3mnrCQgrnc-41">
          <mxGeometry relative="1" as="geometry" />
        </mxCell>
        <mxCell id="krq-VuMKTo3mnrCQgrnc-39" value="&lt;font style=&quot;font-size: 12px;&quot;&gt;Load tables into Quarto notebook&lt;/font&gt;" style="html=1;dashed=0;whiteSpace=wrap;" vertex="1" parent="1">
          <mxGeometry x="320" y="620" width="100" height="70" as="geometry" />
        </mxCell>
        <mxCell id="krq-VuMKTo3mnrCQgrnc-44" style="edgeStyle=orthogonalEdgeStyle;rounded=0;orthogonalLoop=1;jettySize=auto;html=1;entryX=0;entryY=0.5;entryDx=0;entryDy=0;" edge="1" parent="1" source="krq-VuMKTo3mnrCQgrnc-41" target="krq-VuMKTo3mnrCQgrnc-43">
          <mxGeometry relative="1" as="geometry" />
        </mxCell>
        <mxCell id="krq-VuMKTo3mnrCQgrnc-41" value="&lt;font style=&quot;font-size: 12px;&quot;&gt;Create visualizations using R in Quarto notebook&lt;/font&gt;" style="html=1;dashed=0;whiteSpace=wrap;" vertex="1" parent="1">
          <mxGeometry x="450" y="625" width="100" height="60" as="geometry" />
        </mxCell>
        <mxCell id="krq-VuMKTo3mnrCQgrnc-49" style="edgeStyle=orthogonalEdgeStyle;rounded=0;orthogonalLoop=1;jettySize=auto;html=1;entryX=0;entryY=0.5;entryDx=0;entryDy=0;exitX=1;exitY=0.5;exitDx=0;exitDy=0;" edge="1" parent="1" source="krq-VuMKTo3mnrCQgrnc-43" target="krq-VuMKTo3mnrCQgrnc-47">
          <mxGeometry relative="1" as="geometry" />
        </mxCell>
        <mxCell id="krq-VuMKTo3mnrCQgrnc-43" value="&lt;font style=&quot;font-size: 12px;&quot;&gt;Render Quarto document as html file&lt;/font&gt;" style="html=1;dashed=0;whiteSpace=wrap;" vertex="1" parent="1">
          <mxGeometry x="580" y="625" width="100" height="60" as="geometry" />
        </mxCell>
        <mxCell id="krq-VuMKTo3mnrCQgrnc-46" value="End" style="html=1;dashed=0;whiteSpace=wrap;shape=mxgraph.dfd.start" vertex="1" parent="1">
          <mxGeometry x="460" y="775" width="80" height="30" as="geometry" />
        </mxCell>
        <mxCell id="krq-VuMKTo3mnrCQgrnc-50" style="edgeStyle=orthogonalEdgeStyle;rounded=0;orthogonalLoop=1;jettySize=auto;html=1;entryX=0;entryY=0.5;entryDx=0;entryDy=0;" edge="1" parent="1" source="krq-VuMKTo3mnrCQgrnc-47" target="krq-VuMKTo3mnrCQgrnc-48">
          <mxGeometry relative="1" as="geometry" />
        </mxCell>
        <mxCell id="krq-VuMKTo3mnrCQgrnc-47" value="&lt;font style=&quot;font-size: 12px;&quot;&gt;Publish in github repository&lt;/font&gt;" style="html=1;dashed=0;whiteSpace=wrap;" vertex="1" parent="1">
          <mxGeometry x="190" y="760" width="100" height="60" as="geometry" />
        </mxCell>
        <mxCell id="krq-VuMKTo3mnrCQgrnc-48" value="Link and summerize project in porfolio website" style="html=1;dashed=0;whiteSpace=wrap;" vertex="1" parent="1">
          <mxGeometry x="320" y="760" width="100" height="60" as="geometry" />
        </mxCell>
        <mxCell id="krq-VuMKTo3mnrCQgrnc-51" style="edgeStyle=orthogonalEdgeStyle;rounded=0;orthogonalLoop=1;jettySize=auto;html=1;entryX=0;entryY=0.5;entryDx=0;entryDy=0;entryPerimeter=0;" edge="1" parent="1" source="krq-VuMKTo3mnrCQgrnc-48" target="krq-VuMKTo3mnrCQgrnc-46">
          <mxGeometry relative="1" as="geometry" />
        </mxCell>
      </root>
    </mxGraphModel>
  </diagram>
</mxfile>
